<?xml version="1.0" encoding="UTF-8"?>
<svg id="_Слой_2" data-name="Слой 2" xmlns="http://www.w3.org/2000/svg" viewBox="0 0 148.11 176.03">
  <defs>
    <style>
      .cls-1 {
        stroke-width: .45px;
      }

      .cls-1, .cls-2, .cls-3, .cls-4, .cls-5, .cls-6, .cls-7, .cls-8, .cls-9, .cls-10, .cls-11, .cls-12, .cls-13, .cls-14 {
        stroke-miterlimit: 10;
      }

      .cls-1, .cls-2, .cls-3, .cls-4, .cls-6, .cls-7, .cls-8, .cls-9, .cls-10, .cls-12, .cls-13 {
        stroke: #fff;
      }

      .cls-1, .cls-2, .cls-3, .cls-4, .cls-6, .cls-7, .cls-8, .cls-9, .cls-10, .cls-13, .cls-14, .cls-15 {
        fill: #1d1d1b;
      }

      .cls-16, .cls-5, .cls-11, .cls-12 {
        fill: #fff;
      }

      .cls-3 {
        stroke-width: .47px;
      }

      .cls-4 {
        stroke-width: .52px;
      }

      .cls-5 {
        stroke-width: .48px;
      }

      .cls-5, .cls-11, .cls-14 {
        stroke: #1d1d1b;
      }

      .cls-6 {
        stroke-width: .54px;
      }

      .cls-7 {
        stroke-width: .42px;
      }

      .cls-8, .cls-11, .cls-12, .cls-14 {
        stroke-width: .49px;
      }

      .cls-9 {
        stroke-width: .37px;
      }

      .cls-10 {
        stroke-width: .47px;
      }

      .cls-13 {
        stroke-width: .45px;
      }
    </style>
  </defs>
  <g id="_цветы" data-name="цветы">
    <g>
      <circle class="cls-16" cx="74.06" cy="92.91" r="74.06"/>
      <g>
        <path class="cls-15" d="m122.33,142.69l-2.36-2.07,5.53-6.31-4.92-4.31-5.53,6.31-1.04-1.67,5.69-6.48c.31-.35.71-.57,1.22-.67.58-.13,1.09,0,1.53.38l6.31,5.53-5.72,6.52.77.68-1.49,2.09Z"/>
        <path class="cls-15" d="m103.94,142.48l8.24-6.05c.37-.28.82-.41,1.35-.39.61.02,1.09.26,1.44.73l2.62,3.54-7.57,5.61c1.01,1.36,2.44,1.37,4.27,0,.79-.58,1.88-1.59,3.28-3.01l1.8,1.04c-1.23,1.57-2.47,2.82-3.72,3.75-1.58,1.18-3.07,1.76-4.46,1.75-1.38,0-2.53-.63-3.44-1.85l-3.8-5.13Zm3.58.07l1.38,1.86,5.29-3.93-1.38-1.86-5.29,3.93Z"/>
        <path class="cls-15" d="m92.11,148.17c.83-.53,1.61-.96,2.36-1.29,3.43-1.51,5.71-.91,6.86,1.82l1.1-.49-1.79-4.05,2.59-1.14,4.16,9.45-11.21,4.94-1.6-3.63c-.25-.53-.23-1.06.05-1.6.25-.47.59-.79,1.03-.99l3.09-1.36c-.68-1.55-2.05-1.88-4.11-.97-.42.19-.98.48-1.67.88l-.86-1.56Zm5.14,4.65l.76,1.72,6.03-2.66-.76-1.72-6.03,2.66Z"/>
        <path class="cls-15" d="m81.39,157.01c-.09-.38-.18-.76-.25-1.13-.86-4.27.69-6.81,4.65-7.6,1.45-.29,3.25-.36,5.42-.22l-.41,2.02c-1.94.07-3.35.2-4.23.38-1.18.24-2,.64-2.46,1.2-.52.63-.66,1.53-.43,2.71l6.44-1.29c.47-.1.95-.04,1.45.16.59.25.95.66,1.06,1.24l.79,3.93-8.51,1.71.2,1.01-2.45.75-.62-3.08,8.23-1.65-.37-1.84-8.51,1.71Z"/>
      </g>
      <g>
        <path class="cls-15" d="m130.11,52.78l-8.29,6.07-1.64-2.24,8.29-6.07,1.64,2.24Z"/>
        <path class="cls-15" d="m138.48,64.34l-2.76,1.5-3.99-7.38-5.75,3.11,3.99,7.38-1.92.4-4.11-7.58c-.22-.41-.29-.87-.21-1.38.08-.59.38-1.02.89-1.3l7.38-3.99,4.13,7.63.91-.49,1.44,2.12Z"/>
        <path class="cls-15" d="m133.6,80.57c-.56.17-1.08.07-1.55-.29-.42-.3-.7-.68-.83-1.12l-2.21-7.37c-.13-.44-.11-.91.08-1.39.2-.56.58-.93,1.14-1.09l8.16-2.44,1.32,4.41.89-.27.98,2.37-1.13.34,1.32,4.42-8.16,2.44Zm-.81-2.71l6.36-1.9-1.75-5.85-6.36,1.9,1.75,5.84Z"/>
        <path class="cls-15" d="m131.38,96.99c-.14-.61-.21-1.16-.23-1.64-.04-1.33.46-2.63,1.5-3.9,1.18-1.42,3.3-3.16,6.38-5.2l-6.33.19-.34-2.82,8.93-.27c.04-.4.08-.79.12-1.19.14-.4.46-.61.96-.62h.46s.15,4.86.15,4.86c-3.41,2-6.53,4.29-9.37,6.86l9.57-.29.08,2.55-10.47.32c-.04.24-.06.39-.04.44.09.27.15.45.17.54l-1.54.18Z"/>
        <path class="cls-15" d="m142.42,101.75l-10.19-1.32.36-2.76,10.19,1.32-.36,2.76Z"/>
        <path class="cls-15" d="m140.51,115.91l-3.03-.82,2.2-8.1-6.31-1.71-2.2,8.1-1.67-1.04,2.26-8.32c.12-.45.39-.83.8-1.14.46-.37.98-.48,1.54-.33l8.1,2.2-2.27,8.37.99.27-.42,2.53Z"/>
      </g>
      <g>
        <path class="cls-15" d="m5.5,90.53l6.3-.21c1.71-.06,3,.67,3.86,2.19.71,1.23,1.1,2.89,1.17,4.98.04,1.17-.02,2.34-.19,3.54l-1.81-.09c.04-.52.04-1.05.02-1.6-.06-1.7-.3-3.08-.73-4.15-.56-1.39-1.41-2.08-2.54-2.08l-4.45.07.11,3.17c-.04.4-.07.79-.11,1.19-.14.42-.45.63-.94.65l-.46.02-.23-7.67Z"/>
        <path class="cls-15" d="m17.95,77.31l-1.91,10.04c-.08.46-.32.86-.72,1.2-.46.4-.97.55-1.55.45l-4.33-.8,1.72-9.26c-1.67-.31-2.71.66-3.13,2.9-.18.96-.29,2.44-.35,4.44l-2.02.46c-.17-1.99-.12-3.75.17-5.28.36-1.94,1.05-3.38,2.07-4.32,1.02-.94,2.28-1.27,3.78-.99l6.28,1.16Zm-2.67,2.38l-2.28-.42-1.2,6.48,2.28.42,1.2-6.48Z"/>
        <path class="cls-15" d="m17.13,62.65c.54.22.89.62,1.05,1.21.14.51.11.98-.08,1.42l-2.94,6.78,4.01,1.74-1.13,2.6-9.42-4.08,4.88-11.24,3.64,1.58Zm-1.31,2.52l-1.72-.75-2.62,6.05,1.72.75,2.62-6.05Z"/>
        <path class="cls-15" d="m29.98,54.98l-6,8.27c-.27.38-.66.64-1.16.78-.59.17-1.12.08-1.59-.25l-3.58-2.57,5.49-7.65c-1.38-.99-2.74-.56-4.07,1.3-.57.79-1.31,2.08-2.21,3.87l-2.03-.44c.69-1.87,1.49-3.44,2.4-4.71,1.15-1.6,2.39-2.61,3.71-3.03,1.32-.41,2.6-.18,3.84.71l5.19,3.72Zm-3.43,1.03l-1.88-1.35-3.84,5.35,1.88,1.35,3.84-5.35Z"/>
        <path class="cls-15" d="m42.36,46c-.4.49-.78.88-1.15,1.19-1.03.85-2.36,1.26-4,1.22-1.85-.05-4.52-.65-8.03-1.81l4.06,4.86-2.01,2.01-5.72-6.86c-.33.21-.67.43-1.01.64-.4.13-.76.01-1.08-.37l-.3-.36,3.75-3.13c3.68,1.44,7.41,2.49,11.18,3.14l-6.14-7.35,1.96-1.63,6.71,8.04c.22-.11.34-.19.37-.24.16-.24.26-.4.32-.46l1.09,1.1Z"/>
        <path class="cls-15" d="m49.13,33.64c.27.54.28,1.08.03,1.63-.22.46-.54.8-.95,1.01l-5.85,2.99,1.15,2.25,7.48-3.81.35,1.93-7.68,3.92c-.41.21-.88.27-1.39.17-.59-.09-1.01-.4-1.28-.92l-3.81-7.47,7.73-3.94-.47-.92,2.15-1.39,1.43,2.8-7.48,3.81.85,1.67,7.66-3.91.09.18Z"/>
        <path class="cls-15" d="m62.01,29.61c.12.38.23.75.32,1.11,1.13,4.21-.25,6.84-4.15,7.88-1.43.38-3.22.57-5.39.57l.28-2.05c1.94-.2,3.34-.42,4.2-.65,1.16-.31,1.95-.76,2.38-1.36.48-.66.56-1.57.25-2.73l-6.34,1.7c-.46.12-.95.1-1.46-.06-.61-.21-.99-.6-1.14-1.17l-1.04-3.87,8.38-2.25-.27-1,2.39-.91.81,3.03-8.1,2.18.49,1.81,8.38-2.25Z"/>
        <path class="cls-15" d="m75.53,28.75c.03.6-.18,1.1-.64,1.5-.39.33-.82.51-1.28.53l-6.56.34.13,2.52,8.38-.43-.47,1.91-8.61.45c-.46.02-.91-.11-1.34-.41-.5-.33-.76-.78-.79-1.36l-.44-8.38,8.66-.45-.05-1.03,2.53-.39.16,3.14-8.38.44.1,1.88,8.59-.45v.21Z"/>
      </g>
      <path class="cls-8" d="m15.29,168.57c-.28-.06,11.34-12.93,13.39-14.34.08-.05.14-.13.19-.21.35-.61,1.79-3.02,2.59-3.32.91-.34,4.31-1.19,5.5-2.89s2.07-5.22,4.65-6.31c.09-.04.16-.09.23-.15.37-.4,1.47-1.84-.9-2.9-2.78-1.25-6.64-3.01-7.38-3.75s-4.31.85-6.24,3.29c-1.93,2.44.28-2.44.91-2.67s1.13-2.27,1.02-2.38-3.12-1.93-3.35-4.2.53-5.19-2.38-5.33c-.11,0-.77,0-.87.06l-2.53.74c-.43.2.71-.3.66-.78l.69-.6c-.03-.3.14-.59.42-.7.93-.39,3-1.15,3.73-.59.96.74,1.93,1.76,2.04,2.84s-.23,3.12-.28,3.69,2.61,3.12,3.12,3.58,3.01,1.76,3.58,1.7,1.13-.68,1.19-.96-3.4-4.14-4.09-4.71.85-.45,1.65.06,2.89,2.21,3.58,3.69c.57,1.23,2,1.83,2.46,1.99.1.04.19.09.26.17.57.59,3.04,3.08,4.2,3.28,1.31.23,2.55.91,4.82-3.52s9.53-6.81,9.42-6.64,5.33-1.48,8.17-4.71c2.64-3.01,4.59-5.53,4.85-5.86.02-.03.04-.05.06-.07.53-.5,6.88-6.56,10.46-13.36,3.73-7.06,8.14-14.3,9.91-20.07.01-.05.02-.1.03-.15l.26-2.81c.01-.15-.02-.31-.11-.44-.7-1.08-3.99-6.21-4.24-7.12-.2-.71-2.81.95-4.4,2.04-.49.33-1.13-.05-1.08-.64h0c.02-.2.12-.38.29-.5l4.69-3.32c.1-.07.21-.12.33-.13.47-.03,1.6.26,2.72,3.29,1.48,3.97,3.86-5.62,3.75-5.85s2.33-5.96,2.27-6.19-1.13-.96-2.67,0-2.61-4.14-2.44-4.09c.12.04-1.31-2.03-2.08-3.13-.24-.34-.71-.39-1.02-.12-.7.63-2,1.51-3.37,1.09-1.13-.35-1.96-.6-2.48-.77-.36-.11-.56-.48-.46-.84.18-.66,1.81-.49,3.11-.38s2.78-1.76,2.84-2.89c.05-.98-.12-2.87-.16-3.35,0-.08,0-.15.02-.23l.64-2.58c.07-.29-.05-.59-.3-.75l-.98-.63s-.03-.02-.04-.03l-2.3-1.71c-.08-.06-.14-.13-.19-.22l-.84-1.51c-.24-.43.04-.97.53-1.03l.75-.08c.2-.02.39.04.54.17.55.49,1.88,1.7,1.93,1.84.06.17,1.08.45,1.99,1.36s.74,2.78.45,4.6.68,8.46,3.58,10.84,4.31,1.87,4.6,1.65,1.82-1.93,3.35-2.33,2.33-5.16,3.29-5.96c.88-.73,1.76-5.24,1.91-6.02.01-.08.04-.14.08-.21.94-1.58,19.95-26.74,20.5-27.32.07-.07.12-.15.15-.24l.92-2.55c.03-.1.09-.18.16-.26.75-.74,6.11-6.47,6.36-6.75.04-.04.07-.09.1-.14.27-.54,1.04-2.12,1.66-3.72.07-.19.63-2.19.88-1.99.65.53-.71,4.48-.71,4.48,0,0,2.84-.4,2.44-4.77,0-.09.57.92.68,1.41s.09,1.18-.08,1.6c-.13.32-.6,1.26-.6,1.26-.47,1-8.91,9.13-8.91,9.13-.07.07-.12.16-.16.25l-1.11,3.05c-.02.06-.05.12-.09.17l-2.27,3.1s-17.48,23.83-17.65,23.89c-.13.04-.86,2.67-1.22,3.98-.11.39.14.79.54.87l1.76.33c.74.14.76,1.2.02,1.36-1.49.33-2.92.61-2.92.5,0-.23-2.72,7.49-4.14,8.4s-6.7,9.42-6.41,10.56,1.43-.88,5.21-1.02c.15,0,.3-.06.42-.15.68-.55,3.12-2.5,4.19-2.69,1.25-.23.91-1.87,4.2-2.5s6.72-1.49,6.43-1.35c-1.6.78-6.55,3.2-6.88,3.68-.4.57,1.02,1.36,1.93,1.7.86.32,3.1,1.56,3.33,1.69.01,0,.03.01.04.02l1.81.84c.34.16.49.55.35.9l-.32.77c-.15.36-.57.53-.93.37-1.67-.75-6.04-2.74-6.95-3.34-1.13-.74-6.58,3.23-7.43,3.06s-5.56.57-5.67,6.75c-.11,5.91-2.89,14.11-4.4,17.36-.02.04-14.18,22.3-16.71,22.97-.1.03-.19.1-.27.18l-7.74,8.18-4.64,5.25c-.44.49,0,1.26.64,1.14,2.78-.51,7.51-1.39,7.51-1.52,0-.17,4.48-2.1,9.31-.96,4.82,1.13,3.18.85,3.18.85,0,0-8.34-.17-11.18.91-2.67,1.02-4.79,1.78-5.03,1.86-.02,0-.03,0-.04.01-.7.19-17.29,4.65-17.63,4.65s-3.86,3.92-5.28,7.43c-1.42,3.52-4.43,5.67-4.6,5.79s-6.7,3.63-6.53,3.8-8.63,10.61-10.1,12.2c-1.09,1.17-1.99,4.58-2.39,6.28-.11.47-.66.68-1.06.41l-.38-.26c-.13-.09-.22-.21-.27-.35l-.28-.85c-.06-.18-.04-.39.05-.56l1.19-2.13s.03-.06.04-.09c.1-.27.59-1.63-.13-1.37-.79.28-1.02-1.02-1.19-.96-.12.04-.51.19-.74.28-.11.04-.23.06-.35.04-.32-.05-.96-.16-1.13-.2-.22-.06,0-.62,0-.62Z"/>
      <path class="cls-14" d="m80.76,110.86c-.23.04,13.66,7.13,14,6.96,1.16-.58-2.38-2.94-3.37-3.78,0,0-9.95-6.13-9.95-6.02s-.68,2.84-.68,2.84Z"/>
      <path class="cls-15" d="m74.89,111.96c-.25-.12-8.21-11.46-8.21-11.35s-2.01-2.19-5.18.95-4.16-1.29-9.8-.15c-5.64,1.13-8.7.98-10.21,1.7s8.4-.16,8.4-.16c0,0,2.44.04,2.48,0s1.78.31,1.7,1.01c0,.03-.06.13-.15.27-.58.92-1.32,1.73-2.17,2.4-1.44,1.12-4.79,3.88-4.87,3.95-.11.11,2.8-.7,2.88-.93.05-.14,1.86-1.19,2.92-2.07.72-.6,1.54-1.07,2.42-1.38,1.11-.4,2.5-.91,2.44-.93-.11-.04,4.46-.79,5.33-1.93s3.07,1.21,3.58,1.74c1.2,1.26,8.08,7.53,8,7.64s.45-.76.45-.76Z"/>
      <path class="cls-6" d="m22.38,117.84c1.4-10.27.44-13.83-.4-15.38-.85-1.59-4.14-1.53-5.67,0-1.1,1.1-1.41,5.84-1.43,8.54-1.41-3.07-3.52-5.62-4.58-5.81-1.53-.28-2.55.51-4.54,5.5-1.51,3.8,2.75,7.11,4.37,8.57-3.38-.15-5.4,1.5-5.42,1.65-.03.17-1.16,1.02-2.46,5.93-.66,2.48,3.61,2.11,5.05,2.59-2.42,4.04-4.31,7.85-3.75,10.61.23,1.11,1.59,2.33,4.37,1.25,2.78-1.08,5.22-1.93,6.07-5.11.2-.76.43-1.43.65-2.05.72,1.98,1.39,3.49,2.3,3.24.22-.06,4.54-6.92,4.37-11.52,0,0,.68-5.11,1.08-8Z"/>
      <path class="cls-6" d="m128.05,24.6c-.17-1.31-1.99-3.52-3.4-4.48-.77-.52-2.52.07-3.98.81.23-1.01.42-2.18.57-3.54,0-.02,0-.03,0-.05.16-1.53-1.43-2.73-3.03-2.33-.49.12-1.02.16-1.57.1-.54-.06-1.05-.21-1.51-.44-1.47-.74-3.29.09-3.47,1.62,0,.02,0,.03,0,.05,0,.03-.02,4.04-.02,4.06-1.71-1.85-2.24-5.97-5.57-2.01-1.35,1.61-1.23.95-3.56,1.77-2.33.82-1.6,4.35-.97,6.6.42,1.52,1.59,3.59,4.16,4.76-1.54,1.17-3.39,2.83-3.59,3.91-.34,1.82-.34,3.69.91,5.11,1.25,1.42,2.24,2.57,3.15,2.75,3.23.65,3.6.26,3.6.26,0,0,2.71-1.14,3.63-3.18.29-.64.55-1.58.74-2.65.21.92.62,1.72,1.36,2.08,2.33,1.13,10.84,4.31,8.91-6.87-.05-.28-.1-.55-.16-.8.11-.01.22-.03.33-.05,4.14-.79,3.63-6.19,3.46-7.49Z"/>
      <path class="cls-4" d="m86.47,74.54c-.23-.04-1.86-1.07-3.92-1.32,1.01-1.99,1.57-4.3,1.27-4.89-.53-1.06-1.82-1.13-2.72-1.51-.91-.38-1.59-1.59-3.03-1.89-1.26-.27-2.64,1.98-3.37,3.4-.39-.39-.85-.79-1.4-1.2-3.71-2.8-6.89-.23-7.1.38-.06.17-.1.48-.12.85-.09,1.24-.65,2.41-1.6,3.21-.76.64-1.51,1.62-1.47,2.97.04,1.36,1.37,2.51,2.7,3.32,0,0,0,.01,0,.01-1.24.3-2.29.75-2.63,1.43-.98,1.97.64,2.47.57,3.93-.08,1.46-1.64,3.25-.91,3.93.72.68,3.07,2.04,4.73,1.74.79-.14,2.48-.91,4.06-1.68,0,0,0,0,0,0-.18,1.55.05,3.3,1.16,5.01,3.25,4.99,7.94,2.8,8.78,1.66.69-.95,1.49-6.11-2.75-11.23,1.86,1,4.41,1.67,6.54-.2,3.86-3.4,1.66-7.87,1.21-7.94Z"/>
      <g>
        <path class="cls-2" d="m63.28,141.61c.04-.24.11-.48.21-.71-.71.26-1.41.34-2.08.17-.36-.09-.69-.25-1-.47-.1.27-.23.53-.4.76-.49.66-.64,1.15-1.53,1.38.74.16.78.41,1.25.91.32.35.54.76.69,1.23.29-.32.63-.57,1.01-.74.72-.32,1.54-.33,2.39-.12-.45-.79-.67-1.61-.55-2.41Z"/>
        <path class="cls-8" d="m76.62,141.64c.88-1.18.62-2.87-.66-3.6-.81-.46-1.79-.8-2.92-.98-1.69-.27-4.16.05-6.25.86,1.16-1.43,2.06-3.07,2.4-4.41.28-1.09.32-2.19.12-3.23-.26-1.35-1.61-2.16-2.95-1.86-.7.15-1.44.15-2.17-.04-.75-.19-1.41-.56-1.96-1.04-1.1-.98-2.81-.88-3.65.33-.54.77-.96,1.71-1.24,2.81-.14.54-.22,1.16-.25,1.84-.49-.57-1-1.06-1.5-1.42-.91-.66-1.92-1.12-2.95-1.32-1.35-.27-2.6.69-2.83,2.04-.12.7-.39,1.39-.84,2-.46.63-1.05,1.1-1.7,1.43-1.32.65-1.86,2.27-1.06,3.51.51.78,1.23,1.53,2.15,2.2,1.3.96,3.47,1.76,5.58,2.04-2.21.48-4.46,1.59-5.72,2.77-.82.76-1.46,1.67-1.85,2.65-.52,1.27.19,2.69,1.47,3.16.67.25,1.29.65,1.81,1.21.53.57.89,1.24,1.08,1.94.39,1.42,1.88,2.26,3.25,1.7.87-.36,1.73-.92,2.57-1.69.66-.61,1.33-1.5,1.9-2.52.13,1.21.41,2.35.8,3.2.46,1.02,1.12,1.91,1.92,2.6,1.04.89,2.61.68,3.47-.39.45-.56,1.03-1.02,1.72-1.33.71-.32,1.45-.45,2.18-.41,1.47.08,2.74-1.06,2.64-2.54-.06-.94-.32-1.94-.79-2.98-.21-.46-.5-.96-.86-1.45.55.2,1.07.34,1.56.42,1.11.18,2.21.12,3.23-.17,1.32-.38,2-1.8,1.59-3.11-.22-.68-.28-1.42-.16-2.17.12-.77.43-1.46.86-2.04Zm-15.19,2.5c-.38.17-.72.43-1.01.74-.15-.47-.37-.88-.69-1.23-.47-.51-.51-.75-1.25-.91.9-.23,1.05-.71,1.53-1.38.17-.23.3-.49.4-.76.31.22.64.38,1,.47.67.17,1.37.09,2.08-.17-.1.23-.17.46-.21.71-.13.8.09,1.62.55,2.41-.85-.21-1.67-.2-2.39.12Z"/>
        <path class="cls-12" d="m63.28,141.38c.04-.24.11-.48.21-.71-.71.26-1.41.34-2.08.17-.36-.09-.69-.25-1-.47-.1.27-.23.53-.4.76-.49.66-.64,1.15-1.53,1.38.74.16.78.41,1.25.91.32.35.54.76.69,1.23.29-.32.63-.57,1.01-.74.72-.32,1.54-.33,2.39-.12-.45-.79-.67-1.61-.55-2.41Z"/>
        <path class="cls-5" d="m14.29,125.75c.14.09.27.22.38.39.03-1.04.17-2.07.47-3.01.16-.5.35-.96.57-1.38-.14-.17-.27-.39-.37-.66-.28-.78-.54-1.05-.44-2.37-.3,1.04-.47,1.07-.91,1.69-.3.42-.63.69-.96.84.12.46.18.97.19,1.54,0,1.07-.22,2.25-.58,3.45.62-.56,1.19-.78,1.65-.5Z"/>
        <path class="cls-12" d="m82.43,101.02c.04-.24.11-.48.21-.71-.71.26-1.41.34-2.08.17-.36-.09-.69-.25-1-.47-.1.27-.23.53-.4.76-.49.66-.64,1.15-1.53,1.38.74.16.78.41,1.25.91.32.35.54.76.69,1.23.29-.32.63-.57,1.01-.74.72-.32,1.54-.33,2.39-.12-.45-.79-.67-1.61-.55-2.41Z"/>
      </g>
      <g>
        <path class="cls-8" d="m82.52,100.69c-.11,0-.22,0-.33,0-.98-.07-1.85-.6-2.54-1.43-.09.43-.25.84-.48,1.21-.36.59-.87,1.05-1.48,1.39.56.33,1.06.77,1.45,1.31.43.6.65,1.23.72,1.89.51-.42,1.1-.73,1.74-.9.43-.11.87-.15,1.3-.13-.08-.11-.15-.22-.21-.34-.49-.88-.52-1.93-.17-3Z"/>
        <path class="cls-2" d="m82.52,100.69c-.11,0-.22,0-.33,0-.98-.07-1.85-.6-2.54-1.43-.09.43-.25.84-.48,1.21-.36.59-.87,1.05-1.48,1.39.56.33,1.06.77,1.45,1.31.43.6.65,1.23.72,1.89.51-.42,1.1-.73,1.74-.9.43-.11.87-.15,1.3-.13-.08-.11-.15-.22-.21-.34-.49-.88-.52-1.93-.17-3Z"/>
        <path class="cls-4" d="m93.89,99.46c-.46-.35-1.69-.32-1.99-.85-.3-.54.37-1.59.31-2.17-.1-.97-.99-1.66-1.95-1.54-1.02.13-2.11.46-3.17.99.17-.62.29-1.29.34-1.98.1-1.36-.05-2.65-.41-3.77-.29-.92-1.3-1.44-2.22-1.13-.55.19-1.14.27-1.75.22-.61-.05-1.18-.22-1.69-.48-.86-.45-1.93-.09-2.36.78-.52,1.05-.87,2.3-.97,3.66-.02.31-.03.62-.03.92-.59-.69-1.32-1.32-2.17-1.84-.65-.4-1.33-.72-2-.94-1.56-.52-3.33.47-3.96,2.15-.12.32-.27.63-.46.94-.19.3-.4.58-.63.83-1.23,1.31-1.32,3.35-.16,4.51.5.5,1.08.97,1.74,1.37.35.22.7.4,1.06.56-.73.29-1.46.68-2.15,1.18-1.22.88-2.16,1.95-2.81,3.1-.53.95-.22,2.43.86,2.99.36.19-2.13,2.06-.1,4.39.8.91,1.93,2.89,5.28,1.93,1.26-.36,2.5-1.02,3.79-2.66.41-.52.8-1.03,1.17-1.54-.01,1.02.11,2.08.38,3.16.42,1.64,1.13,3.08,2.01,4.24.73.96,2.19,1.15,3.2.41.6-.44,1.3-.78,2.08-.98.78-.2,1.55-.24,2.29-.13,1.25.17,2.43-.69,2.61-1.89.22-1.44.15-3.05-.27-4.69-.48-1.89-1.36-3.52-2.44-4.75,1.12.07,2.34-.17,3.56-.84,1.19-.66,2.68-2.67,3.28-3.67.39-.66.49-1.88-.27-2.47Zm-12.28,4.7c-.65.17-1.23.48-1.74.9-.07-.66-.29-1.29-.72-1.89-.39-.54-.88-.97-1.45-1.31.6-.34,1.11-.8,1.48-1.39.23-.38.39-.79.48-1.21.69.83,1.57,1.35,2.54,1.43.11,0,.22,0,.33,0-.35,1.07-.32,2.12.17,3,.06.12.14.23.21.34-.44-.02-.87.02-1.3.13Z"/>
      </g>
      <path class="cls-11" d="m113.81,30.89c-.54-.39-1.15-.65-1.8-.77.46-.47.81-1.04,1-1.76.17-.65.19-1.3.09-1.95.64.25,1.32.35,2.01.26.44-.06.85-.2,1.24-.4-.2,1.06-.05,2.07.52,2.87.06.09.14.17.21.25-1.04.41-1.84,1.1-2.21,2.04-.05.12-.09.25-.13.38-.26-.35-.57-.66-.93-.93Z"/>
      <path class="cls-11" d="m73.54,80.04c-.54-.39-1.15-.65-1.8-.77.46-.47.81-1.04,1-1.76.17-.65.19-1.3.09-1.95.64.25,1.32.35,2.01.26.44-.06.85-.2,1.24-.4-.2,1.06-.05,2.07.52,2.87.06.09.14.17.21.25-1.04.41-1.84,1.1-2.21,2.04-.05.12-.09.25-.13.38-.26-.35-.57-.66-.93-.93Z"/>
      <path class="cls-7" d="m123.95,68.92c-.47-.29-1.01-.53-1.61-.68-2.29-.58-5.39-.74-5.87.89-.54,1.83-1.71,2.63-1.78,2.65-1.66.44-1.92,3.29-1.52,5.62.12.68.35,1.31.65,1.84.33.59,1.09.59,1.59.14.31-.28.91.43,1.35.35s.64-.91,1.02-.76c.64.25,1.37-.09,1.47-.77,0-.02-.05-.36-.1-.7s.3-.57.59-.41c.44.24.82.44.84-.01.03-.41,1.18-.14,1.44-.5.26-.36-.42-1.3-.04-1.46.34-.14.57-.43.65-.75,0,0-.14-.12-.32-.27-.23-.19-.11-.57.2-.59.59-.03,1.15-.13,1.02-.56-.12-.39.99-.74,1.1-1.17s-.84-.89-.49-1.18c.54-.44.39-1.33-.2-1.7Z"/>
      <path class="cls-1" d="m77.83,61.77c.53-.22,1.05-.53,1.55-.93,1.98-1.62,4.12-4.2,3.03-5.66-1.22-1.64-1.15-3.16-1.12-3.24.7-1.72-1.58-3.77-3.84-4.91-.52-.27-1.06-.45-1.59-.55-.78-.15-1.62.44-1.55,1.23.04.44-.96.52-1.17.95s.37,1.14,0,1.37c-.63.39-.8,1.24-.29,1.77.01.01.19.11.42.24.4.22.39.8-.02,1.01-.38.19-.62.37-.31.63.33.29-.64,1.11-.5,1.56.14.45,1.39.47,1.28.9-.09.35-.01.7.16.97.03.05.09.07.15.06,0,0,0,0,.01,0,.42-.1.76.35.54.73-.26.44-.39.84-.01.98.41.14,0,1.34.29,1.7s1.19-.1,1.31.25c.26.74.95,1.25,1.67.95Z"/>
      <path class="cls-9" d="m85.27,34.44c1.33,2.28-.34,3.9-1.64,4.66s-3.06,1.18-4.52-1.02c-1.83-2.76-2.02-7.21-.72-7.97s5.54,2.05,6.88,4.33Z"/>
      <path class="cls-10" d="m93.36,122.71c-2.24-2.49-.58-4.92.83-6.19s3.48-2.25,5.86.11c2.98,2.95,4.35,8.42,2.94,9.69s-7.4-1.12-9.63-3.6Z"/>
      <path class="cls-13" d="m43.12,109.77c1.75-2.68,4.41-1.74,5.93-.75s2.94,2.67,1.34,5.45c-2,3.48-6.72,6.09-8.24,5.09s-.78-7.12.97-9.79Z"/>
      <path class="cls-3" d="m34.87,95.84c-1.25-.41,2.1-4.44,5.22-4.78,3.12-.34,3.35-.57,4.43-2.04s.47,10.15-9.65,6.82Z"/>
    </g>
  </g>
</svg>