<?xml version="1.0" encoding="UTF-8"?>
<svg id="_Слой_2" data-name="Слой 2" xmlns="http://www.w3.org/2000/svg" viewBox="0 0 444.75 171.96">
  <defs>
    <style>
      .cls-1, .cls-2 {
        stroke-width: .53px;
      }

      .cls-1, .cls-2, .cls-3, .cls-4, .cls-5, .cls-6, .cls-7, .cls-8, .cls-9, .cls-10, .cls-11, .cls-12, .cls-13, .cls-14, .cls-15, .cls-16, .cls-17 {
        stroke-miterlimit: 10;
      }

      .cls-1, .cls-2, .cls-3, .cls-4, .cls-6, .cls-8, .cls-9, .cls-10, .cls-11, .cls-12, .cls-14, .cls-18, .cls-17 {
        fill: #1d1d1b;
      }

      .cls-1, .cls-3, .cls-4, .cls-6, .cls-8, .cls-11, .cls-13, .cls-16, .cls-17 {
        stroke: #fff;
      }

      .cls-19, .cls-5, .cls-7, .cls-13, .cls-15, .cls-16 {
        fill: #fff;
      }

      .cls-2, .cls-5, .cls-7, .cls-9, .cls-10, .cls-12, .cls-14, .cls-15 {
        stroke: #1d1d1b;
      }

      .cls-3, .cls-7, .cls-12, .cls-13 {
        stroke-width: .48px;
      }

      .cls-4 {
        stroke-width: .46px;
      }

      .cls-5 {
        stroke-width: .47px;
      }

      .cls-6 {
        stroke-width: .45px;
      }

      .cls-8 {
        stroke-width: .36px;
      }

      .cls-9, .cls-11 {
        stroke-width: .51px;
      }

      .cls-10 {
        stroke-width: .44px;
      }

      .cls-14 {
        stroke-width: .36px;
      }

      .cls-20 {
        fill: none;
      }

      .cls-15 {
        stroke-width: .64px;
      }

      .cls-16 {
        stroke-width: .49px;
      }

      .cls-17 {
        stroke-width: .43px;
      }
    </style>
  </defs>
  <g id="SakuraMotors">
    <g>
      <circle class="cls-19" cx="72.34" cy="90.75" r="72.34"/>
      <path class="cls-3" d="m15.23,164.68c-.27-.05,11.07-12.63,13.09-14.01.08-.05.14-.12.19-.21.35-.6,1.75-2.95,2.53-3.24.89-.33,4.21-1.16,5.38-2.83s2.02-5.1,4.54-6.16c.08-.04.16-.08.22-.15.36-.39,1.44-1.79-.88-2.83-2.72-1.22-6.49-2.94-7.21-3.66s-4.21.83-6.1,3.22.28-2.38.89-2.61,1.11-2.22,1-2.33-3.05-1.88-3.27-4.1.52-5.07-2.33-5.21c-.11,0-.75,0-.85.06l-2.48.72c-.42.2.69-.29.65-.76l.67-.58c-.03-.29.14-.57.41-.69.91-.38,2.93-1.13,3.65-.58.94.72,1.88,1.72,2,2.77s-.22,3.05-.28,3.6,2.55,3.05,3.05,3.49,2.94,1.72,3.49,1.66,1.11-.67,1.16-.94-3.33-4.05-3.99-4.6.83-.44,1.61.06,2.83,2.16,3.49,3.6c.55,1.2,1.96,1.79,2.41,1.95.1.04.18.09.26.17.55.57,2.97,3.01,4.1,3.21,1.28.22,2.49.89,4.71-3.44s9.31-6.65,9.2-6.49,5.21-1.44,7.98-4.6c2.58-2.94,4.49-5.4,4.74-5.73.02-.03.04-.05.06-.07.51-.49,6.72-6.41,10.22-13.05s7.95-13.97,9.68-19.61c.01-.05.02-.09.03-.14l.25-2.74c.01-.15-.02-.3-.1-.43-.68-1.05-3.9-6.07-4.14-6.96-.19-.69-2.74.93-4.3,1.99-.47.32-1.11-.05-1.05-.62h0c.02-.2.12-.38.28-.49l4.58-3.24c.1-.07.21-.11.33-.12.46-.03,1.56.25,2.66,3.21,1.44,3.88,3.77-5.49,3.66-5.71s2.27-5.82,2.22-6.04-1.11-.94-2.61,0-2.55-4.05-2.38-3.99c.12.04-1.28-1.98-2.03-3.06-.23-.33-.7-.38-1-.11-.69.61-1.95,1.47-3.29,1.06-1.1-.34-1.92-.59-2.43-.75-.35-.11-.55-.47-.45-.82.18-.64,1.77-.48,3.04-.37s2.72-1.72,2.77-2.83c.05-.96-.11-2.8-.16-3.27,0-.08,0-.15.02-.22l.63-2.52c.07-.28-.05-.58-.29-.74l-.96-.61s-.03-.02-.04-.03l-2.25-1.67c-.08-.06-.14-.13-.19-.21l-.82-1.47c-.24-.42.04-.95.52-1l.73-.08c.19-.02.38.04.53.17.53.48,1.84,1.66,1.88,1.79.06.17,1.05.44,1.94,1.33s.72,2.72.44,4.49.67,8.26,3.49,10.59,4.21,1.83,4.49,1.61,1.77-1.88,3.27-2.27,2.27-5.04,3.22-5.82c.86-.71,1.72-5.12,1.86-5.88.01-.08.04-.14.08-.21.91-1.55,19.49-26.13,20.02-26.69.06-.07.11-.15.15-.24l.9-2.49c.03-.09.09-.18.16-.25.73-.72,5.97-6.33,6.21-6.59.04-.04.07-.09.1-.14.27-.53,1.01-2.07,1.62-3.64.07-.19.61-2.14.86-1.94.63.52-.69,4.38-.69,4.38,0,0,2.77-.39,2.38-4.66,0-.08.56.9.66,1.38s.08,1.15-.08,1.56c-.13.32-.59,1.23-.59,1.23-.46.97-8.7,8.92-8.7,8.92-.07.07-.12.15-.16.25l-1.08,2.98c-.02.06-.05.12-.09.17l-2.22,3.03s-17.07,23.28-17.24,23.34c-.12.04-.84,2.61-1.19,3.89-.1.38.14.77.53.85l1.72.32c.73.14.74,1.17.02,1.33-1.45.32-2.85.6-2.85.49,0-.22-2.66,7.32-4.05,8.2s-6.54,9.2-6.26,10.31,1.39-.86,5.09-.99c.15,0,.29-.06.41-.15.66-.54,3.05-2.44,4.1-2.63,1.22-.22.89-1.83,4.1-2.44s6.56-1.46,6.28-1.32c-1.57.76-6.4,3.13-6.72,3.59-.39.55,1,1.33,1.88,1.66.84.32,3.03,1.53,3.25,1.65.01,0,.03.01.04.02l1.77.82c.33.15.48.54.34.88l-.31.75c-.15.35-.56.51-.9.36-1.63-.74-5.9-2.68-6.79-3.26-1.11-.72-6.43,3.16-7.26,2.99s-5.43.55-5.54,6.6c-.11,5.78-2.83,13.79-4.3,16.96-.02.04-13.85,21.78-16.32,22.44-.1.03-.19.1-.26.17l-7.56,7.99-4.53,5.13c-.43.48,0,1.23.63,1.12,2.71-.5,7.34-1.36,7.34-1.48,0-.17,4.38-2.05,9.09-.94,4.71,1.11,3.1.83,3.1.83,0,0-8.15-.17-10.92.89-2.61.99-4.68,1.74-4.91,1.82-.02,0-.03,0-.04.01-.68.18-16.89,4.54-17.22,4.54s-3.77,3.83-5.16,7.26-4.32,5.54-4.49,5.65-6.54,3.55-6.38,3.71-8.43,10.37-9.87,11.92c-1.07,1.15-1.95,4.47-2.34,6.13-.11.46-.65.67-1.04.4l-.37-.25c-.12-.08-.21-.21-.26-.35l-.28-.83c-.06-.18-.04-.38.05-.54l1.16-2.08s.03-.06.04-.09c.1-.26.57-1.59-.13-1.34-.78.28-1-1-1.16-.94-.12.04-.5.18-.72.27-.11.04-.23.05-.34.04-.31-.05-.94-.15-1.1-.19-.22-.06,0-.61,0-.61Z"/>
      <path class="cls-12" d="m79.19,108.3c-.22.04,13.34,6.97,13.67,6.8,1.13-.57-2.33-2.87-3.29-3.7,0,0-9.72-5.99-9.72-5.88s-.67,2.77-.67,2.77Z"/>
      <path class="cls-18" d="m73.46,109.37c-.24-.12-8.02-11.2-8.02-11.09s-1.96-2.14-5.06.92c-3.1,3.07-4.07-1.26-9.57-.15s-8.5.96-9.98,1.66,8.2-.15,8.2-.15c0,0,2.38.04,2.42,0s1.74.3,1.66.99c0,.03-.06.12-.14.26-.56.9-1.29,1.69-2.12,2.34-1.4,1.1-4.68,3.79-4.75,3.86-.11.11,2.73-.68,2.81-.91.05-.14,1.82-1.16,2.86-2.02.7-.59,1.5-1.04,2.36-1.35,1.08-.39,2.45-.89,2.38-.91-.11-.04,4.36-.78,5.21-1.88s3,1.19,3.49,1.7c1.17,1.23,7.89,7.35,7.82,7.47s.44-.74.44-.74Z"/>
      <path class="cls-1" d="m22.17,115.11c1.37-10.03.43-13.51-.39-15.02-.83-1.55-4.05-1.5-5.54,0-1.08,1.08-1.38,5.7-1.4,8.34-1.38-3-3.44-5.49-4.47-5.68-1.5-.28-2.49.5-4.43,5.38-1.48,3.71,2.68,6.94,4.27,8.37-3.3-.15-5.27,1.47-5.3,1.61-.03.17-1.13,1-2.41,5.79-.65,2.42,3.53,2.07,4.93,2.53-2.37,3.95-4.21,7.67-3.66,10.37.22,1.09,1.55,2.27,4.27,1.22,2.72-1.05,5.1-1.88,5.93-4.99.2-.74.42-1.4.64-2,.7,1.93,1.36,3.41,2.25,3.17.21-.06,4.43-6.76,4.27-11.25,0,0,.67-4.99,1.05-7.82Z"/>
      <path class="cls-1" d="m125.39,24.03c-.17-1.28-1.94-3.44-3.33-4.38-.75-.51-2.46.06-3.88.8.22-.99.41-2.13.56-3.45,0-.01,0-.03,0-.04.16-1.49-1.4-2.67-2.96-2.28-.48.12-1,.16-1.53.1-.53-.06-1.03-.21-1.47-.43-1.44-.72-3.22.09-3.39,1.58,0,.01,0,.03,0,.04,0,.02-.02,3.95-.02,3.97-1.67-1.8-2.19-5.83-5.44-1.96-1.32,1.57-1.2.93-3.47,1.73-2.27.8-1.56,4.24-.95,6.45.41,1.49,1.55,3.51,4.06,4.65-1.5,1.14-3.31,2.76-3.51,3.82-.33,1.77-.33,3.6.89,4.99,1.22,1.39,2.19,2.51,3.08,2.69,3.16.64,3.52.25,3.52.25,0,0,2.65-1.11,3.55-3.1.28-.62.54-1.55.72-2.59.21.9.6,1.68,1.33,2.03,2.27,1.11,10.59,4.21,8.7-6.71-.05-.27-.1-.53-.15-.78.11-.01.21-.03.32-.05,4.05-.78,3.55-6.04,3.38-7.32Z"/>
      <path class="cls-9" d="m84.77,72.82c-.23-.04-1.81-1.05-3.83-1.29.98-1.95,1.53-4.2,1.24-4.77-.52-1.03-1.77-1.11-2.66-1.48-.89-.37-1.55-1.55-2.96-1.85-1.23-.26-2.58,1.93-3.29,3.32-.38-.38-.83-.77-1.37-1.18-3.62-2.73-6.73-.22-6.93.37-.06.16-.1.47-.12.83-.08,1.21-.64,2.36-1.56,3.14-.74.63-1.47,1.58-1.43,2.91.04,1.33,1.34,2.45,2.64,3.25,0,0,0,0,0,.01-1.21.29-2.23.74-2.57,1.4-.96,1.92.63,2.42.55,3.84-.07,1.43-1.6,3.18-.89,3.84.71.67,3,2,4.62,1.7.77-.14,2.43-.89,3.96-1.64,0,0,0,0,0,0-.18,1.52.05,3.22,1.13,4.89,3.18,4.88,7.76,2.73,8.57,1.63.68-.93,1.46-5.97-2.69-10.97,1.82.98,4.31,1.63,6.38-.19,3.77-3.33,1.63-7.69,1.18-7.76Z"/>
      <g>
        <path class="cls-20" d="m62.12,138.33c.04-.24.11-.47.21-.69-.69.26-1.38.34-2.03.17-.35-.09-.67-.25-.97-.46-.1.27-.22.52-.39.75-.48.65-.62,1.12-1.5,1.35.72.16.76.4,1.22.89.31.34.53.74.67,1.2.28-.31.61-.56.99-.73.7-.32,1.5-.33,2.34-.12-.44-.77-.66-1.57-.53-2.35Z"/>
        <path class="cls-3" d="m75.15,138.37c.86-1.16.61-2.81-.64-3.52-.8-.45-1.75-.78-2.85-.96-1.65-.27-4.06.04-6.1.84,1.13-1.39,2.01-3,2.34-4.31.27-1.06.31-2.14.12-3.16-.25-1.32-1.57-2.11-2.88-1.82-.68.15-1.4.15-2.12-.03-.74-.19-1.38-.55-1.91-1.02-1.07-.96-2.74-.86-3.56.32-.52.75-.94,1.67-1.22,2.75-.13.53-.21,1.14-.24,1.79-.48-.56-.98-1.03-1.46-1.38-.88-.65-1.87-1.09-2.89-1.29-1.31-.26-2.54.67-2.76,2-.11.69-.38,1.36-.82,1.96-.45.61-1.02,1.08-1.66,1.39-1.29.64-1.82,2.22-1.03,3.43.5.77,1.2,1.5,2.1,2.15,1.27.93,3.39,1.72,5.46,1.99-2.15.47-4.35,1.56-5.59,2.7-.8.75-1.42,1.63-1.81,2.59-.5,1.24.18,2.63,1.44,3.09.65.24,1.26.63,1.77,1.18.52.56.87,1.21,1.05,1.89.38,1.39,1.84,2.21,3.17,1.66.85-.35,1.69-.9,2.51-1.65.65-.6,1.3-1.47,1.86-2.46.13,1.19.4,2.29.78,3.13.45,1,1.1,1.87,1.88,2.54,1.02.87,2.55.66,3.39-.38.44-.54,1-.99,1.68-1.3.69-.31,1.42-.44,2.13-.4,1.44.08,2.68-1.04,2.58-2.48-.06-.91-.31-1.89-.77-2.91-.2-.45-.49-.94-.84-1.42.53.19,1.05.33,1.52.41,1.08.17,2.16.12,3.16-.17,1.29-.37,1.96-1.76,1.55-3.03-.21-.66-.28-1.38-.16-2.12.12-.75.42-1.43.84-1.99Zm-14.84,2.44c-.37.17-.7.42-.99.73-.14-.45-.36-.86-.67-1.2-.46-.5-.5-.73-1.22-.89.88-.23,1.02-.7,1.5-1.35.17-.23.29-.48.39-.75.3.21.62.37.97.46.65.17,1.34.09,2.03-.17-.1.22-.17.45-.21.69-.13.78.09,1.58.53,2.35-.83-.21-1.64-.2-2.34.12Z"/>
        <path class="cls-13" d="m62.12,138.33c.04-.24.11-.47.21-.69-.69.26-1.38.34-2.03.17-.35-.09-.67-.25-.97-.46-.1.27-.22.52-.39.75-.48.65-.62,1.12-1.5,1.35.72.16.76.4,1.22.89.31.34.53.74.67,1.2.28-.31.61-.56.99-.73.7-.32,1.5-.33,2.34-.12-.44-.77-.66-1.57-.53-2.35Z"/>
        <path class="cls-5" d="m15.75,122.84c.14.08.26.22.37.38.03-1.02.17-2.02.45-2.94.15-.49.34-.94.55-1.34-.14-.17-.26-.38-.36-.65-.27-.76-.53-1.03-.43-2.31-.3,1.02-.46,1.05-.89,1.65-.3.41-.61.67-.93.82.11.45.18.95.18,1.5,0,1.04-.21,2.2-.57,3.37.6-.54,1.16-.76,1.62-.48Z"/>
        <path class="cls-16" d="m80.65,98.95c.03-.27.1-.53.19-.78-.62.29-1.25.38-1.84.19-.32-.1-.61-.28-.88-.52-.09.3-.2.58-.35.84-.43.73-.56,1.26-1.35,1.51.65.18.69.45,1.11,1,.28.38.48.84.61,1.35.26-.35.55-.63.89-.82.63-.36,1.36-.37,2.11-.14-.4-.87-.6-1.77-.48-2.65Z"/>
      </g>
      <g>
        <path class="cls-12" d="m80.92,98.36c-.11,0-.21,0-.32,0-.95-.07-1.81-.58-2.48-1.39-.09.42-.24.82-.47,1.19-.36.58-.85,1.03-1.44,1.35.55.33,1.03.75,1.41,1.28.42.58.64,1.2.7,1.84.5-.41,1.07-.72,1.7-.88.42-.11.85-.14,1.27-.12-.07-.11-.15-.22-.21-.33-.48-.86-.5-1.89-.17-2.93Z"/>
        <path class="cls-11" d="m92.01,97.16c-.45-.34-1.65-.31-1.94-.83-.29-.52.36-1.55.31-2.11-.09-.94-.96-1.62-1.91-1.51-1,.12-2.06.45-3.09.97.17-.61.28-1.26.33-1.93.1-1.33-.05-2.59-.4-3.68-.29-.9-1.27-1.41-2.16-1.1-.53.18-1.11.26-1.71.22-.6-.05-1.16-.21-1.66-.47-.84-.44-1.89-.08-2.31.77-.51,1.03-.85,2.25-.95,3.58-.02.3-.03.6-.03.9-.58-.67-1.29-1.29-2.12-1.8-.64-.39-1.3-.7-1.95-.92-1.52-.51-3.26.46-3.87,2.1-.12.31-.27.62-.45.92-.18.3-.39.57-.62.81-1.2,1.28-1.29,3.27-.16,4.4.49.49,1.06.94,1.7,1.34.34.21.69.39,1.04.55-.72.29-1.42.67-2.1,1.15-1.19.86-2.11,1.91-2.74,3.03-.52.93-.21,2.37.84,2.92.35.18-2.08,2.01-.1,4.29.78.89,1.88,2.83,5.16,1.88,1.23-.36,2.44-1,3.7-2.6.4-.5.78-1.01,1.14-1.51-.01.99.1,2.03.37,3.09.41,1.6,1.1,3.01,1.97,4.14.72.94,2.14,1.13,3.12.4.59-.43,1.27-.77,2.03-.96.76-.19,1.52-.23,2.24-.13,1.22.17,2.37-.68,2.55-1.85.22-1.41.15-2.98-.26-4.58-.47-1.84-1.32-3.43-2.38-4.64,1.1.07,2.29-.17,3.48-.82,1.17-.65,2.62-2.61,3.21-3.59.38-.64.48-1.83-.27-2.41Zm-12,4.99c-.63.16-1.2.47-1.7.88-.07-.64-.28-1.26-.7-1.84-.38-.53-.86-.95-1.41-1.28.59-.33,1.09-.78,1.44-1.35.23-.37.38-.77.47-1.19.68.81,1.53,1.32,2.48,1.39.11,0,.21,0,.32,0-.34,1.04-.31,2.07.17,2.93.06.11.13.22.21.33-.43-.02-.85.02-1.27.12Z"/>
      </g>
      <path class="cls-13" d="m111.48,30.17c-.53-.39-1.12-.63-1.76-.75.45-.46.79-1.02.98-1.72.17-.63.19-1.27.09-1.9.63.25,1.29.34,1.96.25.43-.06.83-.2,1.21-.39-.2,1.04-.05,2.02.5,2.8.06.09.13.17.2.25-1.02.4-1.79,1.08-2.15,1.99-.05.12-.09.25-.12.37-.26-.34-.56-.65-.91-.9Z"/>
      <path class="cls-7" d="m72.14,78.18c-.53-.39-1.12-.63-1.76-.75.45-.46.79-1.02.98-1.72.17-.63.19-1.27.09-1.9.63.25,1.29.34,1.96.25.43-.06.83-.2,1.21-.39-.2,1.04-.05,2.02.5,2.8.06.09.13.17.2.25-1.02.4-1.79,1.08-2.15,1.99-.05.12-.09.25-.12.37-.26-.34-.56-.65-.91-.9Z"/>
      <path class="cls-2" d="m123.94,67.54c-.59-.37-1.28-.67-2.03-.86-2.89-.74-6.8-.94-7.41,1.12-.68,2.31-2.15,3.32-2.24,3.34-2.1.55-2.42,4.15-1.91,7.09.15.86.44,1.65.82,2.32.42.74,1.37.74,2.01.17.39-.35,1.15.54,1.7.44s.81-1.15,1.29-.96c.8.32,1.72-.11,1.86-.97,0-.02-.06-.45-.12-.88s.38-.71.74-.52c.55.3,1.03.55,1.07-.02.03-.52,1.49-.17,1.81-.63.32-.45-.53-1.64-.06-1.84.43-.18.72-.54.82-.95,0,0-.18-.15-.4-.34-.29-.24-.13-.72.25-.74.75-.04,1.45-.16,1.28-.7-.15-.49,1.25-.93,1.39-1.47s-1.06-1.12-.62-1.48c.68-.55.49-1.68-.25-2.14Z"/>
      <path class="cls-10" d="m76.33,60.34c.52-.21,1.03-.52,1.51-.91,1.93-1.58,4.02-4.11,2.96-5.53-1.19-1.6-1.13-3.09-1.1-3.16.68-1.68-1.54-3.68-3.75-4.79-.51-.26-1.04-.44-1.55-.54-.76-.15-1.58.43-1.52,1.2.04.43-.93.51-1.14.93s.36,1.11,0,1.34c-.61.38-.79,1.22-.29,1.73.01.01.19.11.41.23.39.21.39.78-.01.98-.37.18-.6.36-.3.62.33.28-.63,1.09-.49,1.53.14.44,1.36.46,1.25.88-.09.34-.01.68.16.95.03.05.09.07.14.05,0,0,0,0,.01,0,.41-.1.74.34.53.71-.26.43-.38.83-.01.95.4.14,0,1.31.28,1.66s1.16-.1,1.28.24c.25.72.93,1.22,1.63.93Z"/>
      <path class="cls-14" d="m83.6,33.64c1.3,2.23-.33,3.81-1.6,4.55s-2.99,1.16-4.41-.99c-1.79-2.7-1.98-7.04-.71-7.78s5.42,2,6.72,4.23Z"/>
      <path class="cls-6" d="m91.5,119.87c-2.19-2.43-.57-4.81.82-6.05s3.4-2.2,5.72.1c2.91,2.89,4.25,8.22,2.87,9.47s-7.22-1.09-9.41-3.52Z"/>
      <path class="cls-17" d="m42.43,107.24c1.71-2.62,4.31-1.7,5.8-.73s2.87,2.61,1.31,5.32c-1.96,3.4-6.56,5.95-8.05,4.98s-.76-6.95.95-9.57Z"/>
      <path class="cls-4" d="m34.36,93.62c-1.22-.4,2.05-4.34,5.1-4.67,3.05-.33,3.27-.55,4.32-1.99s.46,9.92-9.42,6.66Z"/>
      <path class="cls-8" d="m86.76,145.96c.66-.79-3.23-2.08-5.44-1.01s-2.45,1.01-3.78.48,3.88,6.93,9.21.54Z"/>
      <path class="cls-15" d="m78.98,97.44c.84.33,1.72.47,2.58.44-.37.71-.55,1.52-.48,2.45.07.84.33,1.66.74,2.42-.91-.13-1.8-.06-2.62.25-.52.2-.98.49-1.37.84-.21-1.37-.84-2.56-1.9-3.39-.12-.09-.24-.17-.37-.25,1.12-.8,1.81-1.88,1.86-3.14,0-.17,0-.34,0-.51.48.36,1,.66,1.56.88Z"/>
    </g>
    <g>
      <g>
        <path class="cls-19" d="m200.82,64.02c.06,1.37.09,2.7.09,4,0,15.07-6.97,22.6-20.91,22.6-5.1,0-11.27-.98-18.5-2.94l2.76-6.58c6.64,1.07,11.51,1.6,14.59,1.6,4.15,0,7.21-.8,9.16-2.4,2.19-1.78,3.29-4.74,3.29-8.9h-22.69c-1.66,0-3.26-.51-4.8-1.52-1.84-1.25-2.76-2.89-2.76-4.91v-13.85h29.98v-3.56l8.81-.89v10.85h-29v6.49h29.98Z"/>
        <path class="cls-19" d="m248.15,86.62l-35.32-.18c-1.6,0-3.11-.56-4.54-1.69-1.66-1.3-2.49-2.96-2.49-4.98v-15.21h32.56c0-5.87-3.95-8.81-11.83-8.81-3.38,0-8.48.53-15.3,1.6l-2.85-6.58c6.64-1.84,12.66-2.76,18.06-2.76,6.82,0,12.14,1.44,15.97,4.31,3.83,2.88,5.74,6.95,5.74,12.23v22.06Zm-9.79-7.56v-8.01h-22.77v8.01h22.77Z"/>
        <path class="cls-19" d="m296.28,86c-1.41.23-2.94.35-4.59.35-6.24,0-11.53-1.33-15.88-4-5.41-3.44-8.06-8.48-7.94-15.12h-4.15v19.39h-9.79v-35.59h9.79v8.81h22.77v-8.81h9.79v9.52c.06,2.02-.74,3.68-2.4,4.98-1.42,1.13-2.97,1.69-4.63,1.69h-11.65c0,4.27,1.94,7.56,5.82,9.87,3.06,1.9,6.55,2.85,10.49,2.85h1.85l.53,6.05Z"/>
        <path class="cls-19" d="m348.23,51.12v31.76c-7.18,4.63-13.79,6.94-19.84,6.94-7.3,0-14.27-2.14-20.91-6.4v-27.13l-4.03-.53c-1.34-.53-2.02-1.66-2.02-3.38v-1.6l15.84-.09v28.11c1.48.77,2.92,1.51,4.34,2.22,2.36,1.07,4.61,1.6,6.73,1.6,3.42,0,6.85-1.3,10.28-3.91v-27.58h9.61Z"/>
        <path class="cls-19" d="m396,85.99c-3.35.53-6.44.8-9.26.8-12.94,0-19.33-5.1-19.15-15.3h-4.15v15.3h-9.79v-35.67h42.35v13.7c.06,2.02-.74,3.68-2.4,4.98-1.42,1.13-2.97,1.69-4.63,1.69h-11.66c0,5.87,3.88,8.81,11.63,8.81,1.59,0,3.76-.15,6.52-.45l.53,6.14Zm-9.79-21.89v-6.49h-22.77v6.49h22.77Z"/>
        <path class="cls-19" d="m443.25,86.62l-35.32-.18c-1.6,0-3.11-.56-4.54-1.69-1.66-1.3-2.49-2.96-2.49-4.98v-15.21h32.56c0-5.87-3.94-8.81-11.83-8.81-3.38,0-8.48.53-15.3,1.6l-2.85-6.58c6.64-1.84,12.66-2.76,18.06-2.76,6.82,0,12.14,1.44,15.97,4.31,3.83,2.88,5.74,6.95,5.74,12.23v22.06Zm-9.79-7.56v-8.01h-22.77v8.01h22.77Z"/>
      </g>
      <g>
        <path class="cls-19" d="m200.91,97.21v34.99h-6.78v-27.36c-3.11,2.57-6.5,4.03-10.16,4.38v23.94l-6.78,2.89v-26.84c-3.39-.35-6.53-1.64-9.41-3.86v26.49l-6.9.88v-30.43c-.96-.18-1.92-.35-2.89-.53-.96-.53-1.44-1.64-1.44-3.33v-1.58l11.23-.09c1.76,1.11,3.51,2.19,5.27,3.24,2.47,1.29,4.98,1.93,7.53,1.93,4.06,0,8.57-1.58,13.55-4.74h6.78Z"/>
        <g>
          <path class="cls-19" d="m243.46,106.66l-9.76.6v2.15h-17.65s0,19.78,0,19.78c-.18,2.53,4.22,4.39,7.79,4.36,0,0,29.48,0,29.48,0,3.57.03,7.97-1.83,7.79-4.36v-19.78h-17.65v-2.75Zm6.8,7.11v15.42h-23.37v-15.42h23.37Z"/>
          <path class="cls-19" d="m319.64,107.03l-9.76.59v2.12h-17.65s0,19.5,0,19.5c-.18,2.49,4.22,4.33,7.79,4.3,0,0,29.48,0,29.48,0,3.57.03,7.97-1.81,7.79-4.3v-19.5h-17.65v-2.71Zm6.8,7.01v15.2h-23.37v-15.2h23.37Z"/>
        </g>
        <rect class="cls-19" x="271.72" y="97.28" width="9.7" height="35.55"/>
        <path class="cls-19" d="m394.84,131.62c-3.26.52-6.26.78-9.01.78-12.59,0-18.8-5-18.62-15h-4.03v15h-9.52v-34.98h41.19v13.43c.06,1.98-.72,3.61-2.34,4.88-1.38,1.11-2.89,1.66-4.5,1.66h-11.34c0,5.76,3.77,8.64,11.31,8.64,1.54,0,3.66-.14,6.34-.44l.51,6.02Zm-9.52-21.46v-6.37h-22.15v6.37h22.15Z"/>
        <path class="cls-19" d="m444.66,108.57c.06,1.23.09,2.44.09,3.62,0,13.62-7.41,20.43-22.21,20.43-5.42,0-11.97-.88-19.66-2.65l2.93-5.95c7.06.97,12.22,1.45,15.5,1.45,4.41,0,7.66-.72,9.74-2.17,2.33-1.61,3.5-4.29,3.5-8.04h-24.1c-1.76,0-3.47-.46-5.1-1.37-1.95-1.13-2.93-2.61-2.93-4.44v-12.52h31.86v-3.22l9.36-.8v9.81h-30.81v5.87h31.85Z"/>
        <rect class="cls-19" x="274.73" y="29.94" width="7.22" height="141.42" transform="translate(378.99 -177.68) rotate(90)"/>
      </g>
    </g>
  </g>
</svg>